<svg width="24" height="24" viewBox="0 0 24 24" fill="none" xmlns="http://www.w3.org/2000/svg">
<path d="M11.998 2.005C17.515 2.005 21.995 6.485 21.995 12.002C21.995 17.52 17.515 22 11.998 22C6.48 22 2 17.52 2 12.002C2 6.485 6.48 2.005 11.998 2.005ZM6.949 12.391L10.8 15.821C10.942 15.949 11.121 16.011 11.299 16.011C11.501 16.011 11.704 15.93 11.851 15.769L17.804 9.26C17.935 9.117 18 8.937 18 8.758C18 8.348 17.669 8.011 17.252 8.011C17.048 8.011 16.847 8.093 16.698 8.254L11.245 14.216L7.947 11.278C7.803 11.151 7.626 11.088 7.448 11.088C7.033 11.088 6.7 11.423 6.7 11.834C6.7 12.039 6.784 12.243 6.949 12.391Z" fill="#22A517"/>
</svg>
